<svg width="37" height="37" viewBox="0 0 37 37" fill="none" xmlns="http://www.w3.org/2000/svg">
<circle cx="36" cy="1" r="1" fill="#C4C4C4"/>
<circle cx="36" cy="8" r="1" fill="#C4C4C4"/>
<circle cx="36" cy="15" r="1" fill="#C4C4C4"/>
<circle cx="36" cy="22" r="1" fill="#C4C4C4"/>
<circle cx="36" cy="29" r="1" fill="#C4C4C4"/>
<circle cx="36" cy="36" r="1" fill="#C4C4C4"/>
<circle cx="29" cy="1" r="1" fill="#C4C4C4"/>
<circle cx="29" cy="8" r="1" fill="#C4C4C4"/>
<circle cx="29" cy="15" r="1" fill="#C4C4C4"/>
<circle cx="29" cy="22" r="1" fill="#C4C4C4"/>
<circle cx="29" cy="29" r="1" fill="#C4C4C4"/>
<circle cx="29" cy="36" r="1" fill="#C4C4C4"/>
<circle cx="22" cy="1" r="1" fill="#C4C4C4"/>
<circle cx="22" cy="8" r="1" fill="#C4C4C4"/>
<circle cx="22" cy="15" r="1" fill="#C4C4C4"/>
<circle cx="22" cy="22" r="1" fill="#C4C4C4"/>
<circle cx="22" cy="29" r="1" fill="#C4C4C4"/>
<circle cx="22" cy="36" r="1" fill="#C4C4C4"/>
<circle cx="15" cy="1" r="1" fill="#C4C4C4"/>
<circle cx="15" cy="8" r="1" fill="#C4C4C4"/>
<circle cx="15" cy="15" r="1" fill="#C4C4C4"/>
<circle cx="15" cy="22" r="1" fill="#C4C4C4"/>
<circle cx="15" cy="29" r="1" fill="#C4C4C4"/>
<circle cx="15" cy="36" r="1" fill="#C4C4C4"/>
<circle cx="8" cy="1" r="1" fill="#C4C4C4"/>
<circle cx="8" cy="8" r="1" fill="#C4C4C4"/>
<circle cx="8" cy="15" r="1" fill="#C4C4C4"/>
<circle cx="8" cy="22" r="1" fill="#C4C4C4"/>
<circle cx="8" cy="29" r="1" fill="#C4C4C4"/>
<circle cx="8" cy="36" r="1" fill="#C4C4C4"/>
<circle cx="1" cy="1" r="1" fill="#C4C4C4"/>
<circle cx="1" cy="8" r="1" fill="#C4C4C4"/>
<circle cx="1" cy="15" r="1" fill="#C4C4C4"/>
<circle cx="1" cy="22" r="1" fill="#C4C4C4"/>
<circle cx="1" cy="29" r="1" fill="#C4C4C4"/>
<circle cx="1" cy="36" r="1" fill="#C4C4C4"/>
</svg>
