<svg width="16" height="16" viewBox="0 0 16 16" fill="none" xmlns="http://www.w3.org/2000/svg">
<path d="M0.727273 2.90909C0.327273 2.90909 0 3.23636 0 3.63636V14.5455C0 15.3455 0.654545 16 1.45455 16H12.3636C12.7636 16 13.0909 15.6727 13.0909 15.2727C13.0909 14.8727 12.7636 14.5455 12.3636 14.5455H2.18182C1.78182 14.5455 1.45455 14.2182 1.45455 13.8182V3.63636C1.45455 3.23636 1.12727 2.90909 0.727273 2.90909ZM10.9091 10.1818C11.3091 10.1818 11.6364 9.85455 11.6364 9.45455V3.63636C11.6364 3.23636 11.3091 2.90909 10.9091 2.90909C10.5091 2.90909 10.1818 3.23636 10.1818 3.63636V5.81818H8.72727V3.63636C8.72727 3.23636 8.4 2.90909 8 2.90909C7.6 2.90909 7.27273 3.23636 7.27273 3.63636V6.54545C7.27273 6.94545 7.6 7.27273 8 7.27273H10.1818V9.45455C10.1818 9.85455 10.5091 10.1818 10.9091 10.1818ZM14.5455 0H4.36364C3.56364 0 2.90909 0.654545 2.90909 1.45455V11.6364C2.90909 12.4364 3.56364 13.0909 4.36364 13.0909H14.5455C15.3455 13.0909 16 12.4364 16 11.6364V1.45455C16 0.654545 15.3455 0 14.5455 0ZM13.8182 11.6364H5.09091C4.69091 11.6364 4.36364 11.3091 4.36364 10.9091V2.18182C4.36364 1.78182 4.69091 1.45455 5.09091 1.45455H13.8182C14.2182 1.45455 14.5455 1.78182 14.5455 2.18182V10.9091C14.5455 11.3091 14.2182 11.6364 13.8182 11.6364Z" fill="white"/>
</svg>
