<svg width="104" height="119" viewBox="0 0 104 119" fill="none" xmlns="http://www.w3.org/2000/svg">
<g id="logo">
<path id="underLighting" d="M37.2506 79.7884C33.2102 79.5433 32.9044 79.1661 30.7045 78.6998L50.4056 53.235L26.6175 57.4268L48.5193 31.6476C49.5673 32.3811 49.9084 32.4003 52.9207 35.3154L40.2407 50.3008L59.6274 45.7947C60.0565 47.1658 59.9707 46.794 60.361 48.2049L37.2506 79.7884Z" fill="#334F51"/>
<path id="smalGear" d="M66.4325 34.4477L78.2807 25.6744C80.2088 27.4201 81.3094 28.8547 82.2628 31.1236L74.5081 36.3633C75.7234 38.7861 76.5842 40.5047 77.2168 43.127L86.5207 41.6683C87.1219 42.7669 87.9212 45.31 87.5925 48.5042L78.4754 49.5521C78.7784 52.726 78.8397 53.5588 78.4902 57.0076L87.5438 60.2825C87.5791 62.4311 87.5693 64.5605 86.245 68.2205L71.4751 62.5957C72.6485 50.1999 72.1413 44.2041 66.4325 34.4477Z" fill="#2F2F2F"/>
<g id="lightingAndText">
<path id="lighting" d="M75.6608 0L58.6843 1.78149L13.5183 65.8102L36.6777 60.7802L6.60198 100.287L4.40132 95.9907L0 114.015L16.0334 105.003L11.3177 103.955L50.6152 53.1302L26.8271 57.322L75.6608 0Z" fill="#2F2F2F"/>
<path id="text" d="M29.0274 51.5437C28.975 51.5029 28.922 51.474 28.8684 51.4571C28.8132 51.4389 28.7509 51.4363 28.6816 51.4492C28.6122 51.462 28.5284 51.4934 28.4303 51.5433C28.3318 51.5904 28.2126 51.661 28.0727 51.7551C27.9082 51.8647 27.7418 51.9642 27.5735 52.0535C27.4035 52.1416 27.235 52.2072 27.0678 52.2504C26.8991 52.2924 26.7339 52.3013 26.5722 52.277C26.4089 52.2515 26.2517 52.18 26.1006 52.0625C25.9557 51.9498 25.8506 51.8161 25.7853 51.6615C25.7184 51.5056 25.6891 51.3381 25.6973 51.1589C25.7051 50.977 25.7486 50.7906 25.8277 50.5997C25.9053 50.4077 26.0166 50.2184 26.1616 50.0318C26.3534 49.7851 26.5656 49.6013 26.7982 49.4803C27.0305 49.3565 27.2666 49.3026 27.5066 49.3185C27.7463 49.3316 27.9725 49.4209 28.1853 49.5864L27.5577 50.3936C27.4729 50.3276 27.3843 50.2872 27.292 50.2723C27.2009 50.2559 27.1098 50.268 27.0189 50.3086C26.9279 50.3492 26.8417 50.422 26.7602 50.5268C26.681 50.6286 26.6299 50.7262 26.6068 50.8195C26.5837 50.9129 26.5846 50.9977 26.6094 51.0739C26.6328 51.1489 26.6753 51.2104 26.7369 51.2584C26.7878 51.2979 26.8449 51.32 26.9081 51.3246C26.9709 51.3265 27.0405 51.315 27.1167 51.2902C27.1941 51.2638 27.2784 51.2254 27.3695 51.175C27.4618 51.1231 27.5606 51.0613 27.6658 50.9897C27.8619 50.8552 28.0493 50.7461 28.2282 50.6625C28.4066 50.5761 28.5777 50.5199 28.7415 50.4938C28.9049 50.465 29.0621 50.4697 29.213 50.5078C29.3651 50.5445 29.5121 50.6179 29.654 50.7282C29.8051 50.8457 29.9165 50.9793 29.9881 51.129C30.0597 51.2787 30.0939 51.4401 30.0905 51.6131C30.0855 51.7849 30.0445 51.9633 29.9675 52.1483C29.8904 52.3333 29.7788 52.5199 29.6325 52.708C29.4983 52.8807 29.3442 53.0343 29.1704 53.1688C28.9962 53.3006 28.8109 53.399 28.6144 53.4639C28.4164 53.5277 28.2139 53.5447 28.007 53.5149C27.7997 53.4824 27.5966 53.3888 27.3977 53.2342L28.0306 52.4201C28.1293 52.4968 28.2228 52.5484 28.311 52.5749C28.3992 52.6015 28.4839 52.6055 28.5651 52.587C28.6448 52.5672 28.7226 52.5276 28.7987 52.468C28.8732 52.4071 28.9476 52.3289 29.0219 52.2333C29.1022 52.13 29.1523 52.0353 29.1722 51.9493C29.1905 51.8622 29.1864 51.7847 29.1598 51.7171C29.1317 51.6482 29.0876 51.5904 29.0274 51.5437ZM28.7793 46.7603L32.1469 49.3785L31.5157 50.1903L28.1481 47.5721L28.7793 46.7603ZM29.5669 45.7473L30.1937 46.2346L28.0053 49.0494L27.3785 48.5621L29.5669 45.7473ZM33.6166 43.8748L33.7531 43.9809C34.0106 44.1811 34.2137 44.3972 34.3624 44.6291C34.5108 44.8583 34.6065 45.0947 34.6496 45.3385C34.6911 45.581 34.6809 45.8217 34.6189 46.0605C34.5554 46.2981 34.4397 46.5248 34.2719 46.7407C34.1029 46.9581 33.9104 47.1277 33.6946 47.2493C33.4785 47.3683 33.2471 47.4383 33.0006 47.4594C32.7538 47.4778 32.5004 47.4441 32.2406 47.3583C31.9803 47.2698 31.7215 47.1255 31.464 46.9253L31.3275 46.8192C31.07 46.619 30.8663 46.4037 30.7163 46.1733C30.5676 45.9414 30.4719 45.7049 30.4292 45.4639C30.3861 45.2202 30.3964 44.9795 30.4599 44.7419C30.523 44.5015 30.6391 44.2727 30.8082 44.0552C30.976 43.8394 31.168 43.672 31.3842 43.5531C31.6 43.4314 31.8313 43.3614 32.0781 43.343C32.3234 43.3234 32.5768 43.3571 32.8382 43.4441C33.0996 43.531 33.3591 43.6746 33.6166 43.8748ZM33.1129 44.8043L32.9718 44.6946C32.8053 44.5652 32.6474 44.4659 32.4982 44.3969C32.3486 44.3252 32.2091 44.2835 32.0796 44.2719C31.9501 44.2602 31.832 44.2785 31.7253 44.3267C31.6182 44.3721 31.5245 44.4464 31.4442 44.5497C31.3603 44.6577 31.3095 44.7691 31.2919 44.8841C31.2728 44.9978 31.2854 45.1152 31.3298 45.2363C31.3741 45.3574 31.4495 45.4816 31.5559 45.6089C31.662 45.7334 31.7983 45.8604 31.9648 45.9899L32.1059 46.0995C32.2709 46.2278 32.4276 46.3286 32.5759 46.4019C32.724 46.4724 32.8629 46.5149 32.9927 46.5292C33.1238 46.5421 33.2428 46.5258 33.3499 46.4804C33.4581 46.4334 33.5542 46.356 33.6381 46.248C33.7185 46.1447 33.7674 46.0356 33.7851 45.9206C33.8027 45.8057 33.7885 45.6871 33.7426 45.5648C33.6979 45.4409 33.6231 45.316 33.5182 45.1899C33.413 45.0611 33.2779 44.9326 33.1129 44.8043ZM35.9936 43.8006L33.4528 40.7491L33.7639 40.3489L34.1943 40.3347L36.7449 43.4644L36.4014 43.9061L35.9936 43.8006ZM32.7929 41.5979L36.3189 43.43L36.4878 43.7951L36.0904 44.3063L32.1671 42.4028L32.7929 41.5979ZM37.2881 42.15L34.6558 39.2017L35.2798 38.3991L38.0917 41.732L37.6961 42.2408L37.2881 42.15ZM33.9887 40.0598L37.6035 41.7681L37.7825 42.1298L37.439 42.5716L33.7599 40.8839L33.6794 40.4576L33.9887 40.0598ZM37.2661 37.3049L39.2875 40.1939L38.6096 41.0659L36.2041 37.2103L36.6338 36.6575L37.2661 37.3049ZM40.4546 38.6928L37.1546 37.4483L36.3641 37.0044L36.7993 36.4447L41.1343 37.8186L40.4546 38.6928ZM39.1735 37.7488L39.8003 38.2361L38.457 39.9638L37.8302 39.4765L39.1735 37.7488ZM37.9591 34.9529L38.9895 33.6276C39.1909 33.3686 39.4044 33.1734 39.6302 33.0421C39.8559 32.9109 40.0845 32.8523 40.3159 32.8665C40.5486 32.8791 40.7759 32.9718 40.998 33.1444C41.1907 33.2942 41.3285 33.4496 41.4112 33.6104C41.494 33.7712 41.5358 33.9386 41.5367 34.1125C41.5373 34.2836 41.5094 34.4611 41.4531 34.6449L41.3966 35.0278L40.5317 36.1403L39.9013 35.6576L40.5414 34.8342C40.6217 34.7309 40.6698 34.6309 40.6855 34.5343C40.7013 34.4377 40.6884 34.346 40.6469 34.2594C40.6051 34.17 40.5364 34.0881 40.4408 34.0138C40.3437 33.9382 40.2466 33.8912 40.1496 33.8728C40.0527 33.8543 39.9587 33.8653 39.8678 33.906C39.778 33.945 39.6942 34.0147 39.6163 34.1149L39.2171 34.6284L41.9579 36.7592L41.3267 37.5711L37.9591 34.9529ZM42.7599 35.7277L40.6913 35.3144L41.3556 34.4504L43.4013 34.8311L43.436 34.858L42.7599 35.7277ZM45.0646 31.4744L45.6891 31.9599L43.7938 34.3978L43.1693 33.9122L45.0646 31.4744ZM42.7253 29.6816L44.1067 33.9953L43.65 34.5828L43.2221 34.2501L41.8702 29.9223L42.3089 29.358L42.7253 29.6816ZM42.1057 29.6193L42.7325 30.1066L40.9002 32.4635L40.2734 31.9762L42.1057 29.6193ZM43.084 28.3611L45.0276 28.8777L44.0496 27.1191L44.7293 26.2448L46.0457 29.0049L47.2553 29.9454L46.6134 30.7711L45.4037 29.8307L42.4024 29.2377L43.084 28.3611ZM48.7141 26.2219C48.6617 26.1811 48.6086 26.1523 48.555 26.1353C48.4999 26.1172 48.4376 26.1145 48.3682 26.1274C48.2988 26.1403 48.2151 26.1716 48.1169 26.2215C48.0184 26.2686 47.8992 26.3392 47.7593 26.4333C47.5949 26.543 47.4285 26.6424 47.2601 26.7317C47.0902 26.8198 46.9216 26.8854 46.7545 26.9286C46.5857 26.9706 46.4205 26.9795 46.2588 26.9552C46.0956 26.9297 45.9384 26.8582 45.7873 26.7407C45.6423 26.6281 45.5372 26.4944 45.4719 26.3397C45.4051 26.1838 45.3757 26.0163 45.3839 25.8371C45.3918 25.6552 45.4353 25.4688 45.5144 25.278C45.5919 25.0859 45.7032 24.8966 45.8483 24.7101C46.0401 24.4633 46.2523 24.2795 46.4849 24.1585C46.7172 24.0348 46.9533 23.9809 47.1933 23.9967C47.4329 24.0099 47.6591 24.0992 47.8719 24.2646L47.2444 25.0718C47.1596 25.0059 47.071 24.9655 46.9787 24.9506C46.8875 24.9342 46.7965 24.9463 46.7055 24.9869C46.6146 25.0275 46.5283 25.1002 46.4468 25.2051C46.3677 25.3068 46.3166 25.4044 46.2935 25.4978C46.2704 25.5911 46.2712 25.6759 46.2961 25.7522C46.3194 25.8272 46.3619 25.8887 46.4236 25.9366C46.4745 25.9762 46.5315 25.9983 46.5947 26.0029C46.6576 26.0048 46.7271 25.9933 46.8034 25.9684C46.8808 25.942 46.9651 25.9036 47.0562 25.8532C47.1485 25.8013 47.2472 25.7395 47.3524 25.6679C47.5485 25.5334 47.736 25.4243 47.9148 25.3407C48.0933 25.2543 48.2644 25.1981 48.4282 25.1721C48.5916 25.1432 48.7487 25.1479 48.8997 25.1861C49.0518 25.2227 49.1988 25.2962 49.3406 25.4065C49.4917 25.5239 49.6031 25.6575 49.6747 25.8072C49.7464 25.9569 49.7805 26.1183 49.7771 26.2913C49.7722 26.4631 49.7312 26.6416 49.6541 26.8266C49.5771 27.0116 49.4654 27.1982 49.3192 27.3863C49.1849 27.559 49.0309 27.7126 48.857 27.8471C48.6828 27.9788 48.4975 28.0772 48.301 28.1422C48.103 28.2059 47.9006 28.2229 47.6936 28.1932C47.4863 28.1607 47.2832 28.0671 47.0843 27.9124L47.7173 27.0983C47.816 27.175 47.9094 27.2266 47.9977 27.2532C48.0859 27.2797 48.1706 27.2837 48.2518 27.2652C48.3314 27.2455 48.4093 27.2058 48.4853 27.1462C48.5598 27.0854 48.6342 27.0072 48.7086 26.9116C48.7889 26.8082 48.839 26.7136 48.8588 26.6276C48.8771 26.5404 48.873 26.463 48.8465 26.3953C48.8183 26.3265 48.7742 26.2686 48.7141 26.2219ZM51.9014 22.6807L52.5259 23.1663L50.6306 25.6041L50.0061 25.1186L51.9014 22.6807ZM49.562 20.8879L50.9434 25.2016L50.4867 25.7891L50.0588 25.4564L48.7069 21.1286L49.1457 20.5643L49.562 20.8879ZM48.9425 20.8256L49.5693 21.3129L47.7369 23.6698L47.1101 23.1825L48.9425 20.8256ZM53.9909 19.9931L54.6154 20.4787L53.22 22.2735L52.5955 21.788L53.9909 19.9931ZM50.0771 19.3662L53.4447 21.9844L52.8136 22.7962L49.446 20.178L50.0771 19.3662ZM52.4048 19.1311L53.0085 19.6005L51.7929 21.164L51.1892 20.6947L52.4048 19.1311ZM51.2532 17.8535L51.88 18.3408L50.4792 20.1426L49.8524 19.6553L51.2532 17.8535ZM53.6933 14.7149L57.0609 17.3331L56.4315 18.1426L53.41 17.7046L55.5055 19.3338L54.8743 20.1456L51.5067 17.5274L52.1379 16.7156L55.1594 17.1536L53.0639 15.5244L53.6933 14.7149ZM54.7632 13.3387L58.1308 15.9569L57.5015 16.7664L54.1339 14.1483L54.7632 13.3387ZM59.7523 12.5826L60.3768 13.0681L58.9814 14.8629L58.3569 14.3774L59.7523 12.5826ZM55.8386 11.9556L59.2062 14.5738L58.575 15.3856L55.2074 12.7674L55.8386 11.9556ZM58.1662 11.7206L58.7699 12.1899L57.5543 13.7534L56.9506 13.2841L58.1662 11.7206ZM57.0146 10.443L57.6414 10.9303L56.2406 12.732L55.6138 12.2447L57.0146 10.443Z" fill="white" fill-opacity="0.8"/>
</g>
<g id="largeGearAndText">
<path id="largeGear" d="M30.7044 78.7002L16.7667 96.7242C23.0292 99.5605 33.9459 101.171 41.6027 100.758L39.8906 90.5853C50.6736 89.2845 55.5747 86.1067 62.1425 79.0142L69.3732 87.8169C72.3393 84.8491 75.2167 81.4052 77.2326 77.8619C79.2818 74.2599 80.7536 70.3054 81.6341 66.439L71.4752 62.5957C73.0792 51.288 72.2145 44.0293 66.4326 34.4475L75.451 27.7704C71.7776 22.3169 66.7245 16.8831 62.876 14.7758L48.5193 31.6476C53.626 35.2758 58.6069 41.2683 60.3609 48.4149C61.7822 55.1432 60.7895 60.9223 57.5315 66.649C54.3869 72.4211 49.0995 77.2957 42.7306 79.2967C38.313 80.1162 35.0198 79.7676 30.7044 78.7002Z" fill="#FB030F"/>
<g id="curveText">
<path id="S" d="M36.0805 85.9317C36.0791 85.8432 36.0649 85.764 36.0378 85.6941C36.0106 85.6216 35.9614 85.5546 35.8902 85.4932C35.8189 85.4318 35.7164 85.3708 35.5827 85.3103C35.4515 85.2472 35.2786 85.1821 35.064 85.1151C34.8128 85.0356 34.5705 84.9455 34.3371 84.8449C34.1038 84.7416 33.8949 84.6211 33.7105 84.4833C33.526 84.3428 33.379 84.1784 33.2693 83.9899C33.1596 83.7989 33.1028 83.5757 33.099 83.3206C33.0952 83.0758 33.1466 82.8549 33.253 82.658C33.3593 82.4584 33.5091 82.2882 33.7023 82.1472C33.898 82.0036 34.1281 81.8933 34.3926 81.8163C34.6571 81.7368 34.9468 81.6946 35.2619 81.6898C35.6785 81.6835 36.0468 81.7508 36.3667 81.8918C36.6891 82.0301 36.9422 82.2307 37.1259 82.4936C37.3122 82.7538 37.408 83.0635 37.4135 83.4229L36.0504 83.4436C36.0482 83.3004 36.0163 83.1746 35.9548 83.0661C35.8958 82.9576 35.8073 82.873 35.6892 82.8123C35.5711 82.7516 35.4235 82.7226 35.2464 82.7253C35.0745 82.7279 34.9304 82.7562 34.814 82.81C34.6977 82.8639 34.6102 82.9355 34.5517 83.025C34.4931 83.1118 34.4646 83.2073 34.4662 83.3115C34.4675 83.3974 34.4921 83.4752 34.54 83.5447C34.5905 83.6117 34.6605 83.6744 34.75 83.733C34.842 83.7915 34.9522 83.8471 35.0807 83.8998C35.2117 83.9525 35.3583 84.0037 35.5206 84.0533C35.8241 84.1451 36.0939 84.249 36.3301 84.3653C36.5688 84.4788 36.7701 84.6099 36.9338 84.7585C37.1001 84.9044 37.2264 85.0717 37.3126 85.2606C37.4014 85.4493 37.4476 85.6635 37.4513 85.9031C37.4552 86.1582 37.4091 86.3855 37.3132 86.5849C37.2173 86.7843 37.0779 86.9544 36.8951 87.0953C36.7123 87.2335 36.4926 87.3397 36.2358 87.4139C35.9791 87.4881 35.6919 87.5277 35.3743 87.5325C35.0826 87.537 34.7944 87.5049 34.5094 87.4363C34.2271 87.3651 33.9701 87.2544 33.7387 87.1042C33.5071 86.9515 33.3205 86.7551 33.1788 86.515C33.0397 86.2723 32.9676 85.983 32.9625 85.6471L34.3373 85.6262C34.3399 85.7928 34.3641 85.9331 34.4101 86.047C34.4562 86.1609 34.5227 86.2524 34.6097 86.3214C34.6966 86.3877 34.8028 86.4356 34.9283 86.465C35.0537 86.4917 35.1971 86.5038 35.3586 86.5014C35.533 86.4987 35.6733 86.4718 35.7793 86.4208C35.8852 86.367 35.9623 86.2982 36.0105 86.2141C36.0587 86.1274 36.082 86.0333 36.0805 85.9317Z" fill="#FCD500"/>
<path id="&#196;&#132;" d="M40.0889 82.4029L39.5062 87.068L38.056 87.3246L39.1228 81.36L40.0421 81.1973L40.0889 82.4029ZM42.0025 86.6262L39.8504 82.4451L39.4652 81.2994L40.396 81.1347L43.4565 86.3689L42.0025 86.6262ZM41.5791 84.5471L41.7635 85.5895L38.8902 86.098L38.7057 85.0556L41.5791 84.5471ZM42.2848 86.3383L43.0411 86.4424C42.9174 86.5357 42.8187 86.6206 42.745 86.6971C42.6738 86.7732 42.6262 86.8478 42.6021 86.9208C42.5785 86.9964 42.5741 87.0765 42.5891 87.1611C42.6009 87.2278 42.6275 87.2812 42.6691 87.3215C42.7131 87.3613 42.7775 87.3737 42.8621 87.3587C42.9288 87.3469 42.98 87.3299 43.0157 87.3078C43.0515 87.2856 43.0846 87.2638 43.1152 87.2425L43.3796 87.8622C43.3223 87.912 43.2456 87.9639 43.1493 88.018C43.0536 88.0746 42.9275 88.1168 42.7711 88.1444C42.5121 88.1903 42.279 88.1588 42.072 88.05C41.8654 87.9437 41.7383 87.756 41.6907 87.4867C41.6684 87.361 41.6685 87.2341 41.6907 87.1059C41.7134 86.9802 41.7702 86.8525 41.8609 86.7227C41.9547 86.595 42.096 86.4669 42.2848 86.3383Z" fill="#FCD500"/>
<path id="D" d="M45.8709 85.4441L44.6807 85.8628L44.3381 84.8653L45.5209 84.4492C45.7666 84.3628 45.9534 84.2308 46.0814 84.0532C46.2119 83.8748 46.2803 83.6534 46.2866 83.3889C46.2946 83.1211 46.238 82.8152 46.117 82.4713L46.0354 82.2391C45.9446 81.9812 45.8393 81.7643 45.7194 81.5883C45.6012 81.4091 45.47 81.2717 45.3259 81.176C45.181 81.078 45.0232 81.0217 44.8524 81.0072C44.6842 80.9919 44.5055 81.0175 44.3163 81.084L43.1224 81.504L42.7711 80.5054L43.965 80.0854C44.3286 79.9575 44.6835 79.903 45.0297 79.922C45.3775 79.9377 45.7026 80.0221 46.0049 80.1752C46.3089 80.325 46.5763 80.536 46.8073 80.8081C47.0399 81.0769 47.2232 81.4016 47.3571 81.7824L47.4362 82.0072C47.5693 82.3855 47.6298 82.7535 47.6175 83.1111C47.6078 83.4679 47.5326 83.7994 47.3918 84.1057C47.2511 84.4119 47.0517 84.6808 46.7936 84.9124C46.5372 85.1407 46.2296 85.3179 45.8709 85.4441ZM43.5339 80.2371L45.4214 85.6023L44.128 86.0573L42.2405 80.6921L43.5339 80.2371Z" fill="#FCD500"/>
<path id="E" d="M52.2294 81.2801L52.7245 82.2114L50.0479 83.6343L49.5528 82.703L52.2294 81.2801ZM47.8093 78.3832L50.4791 83.4051L49.2684 84.0487L46.5987 79.0268L47.8093 78.3832ZM50.7696 79.3664L51.2482 80.2667L48.9166 81.5062L48.438 80.606L50.7696 79.3664ZM50.065 77.184L50.562 78.1187L47.8751 79.5471L47.3782 78.6124L50.065 77.184Z" fill="#FCD500"/>
<path id="C" d="M54.9679 78.1536L56.0653 77.3382C56.2868 77.6669 56.4092 78.0107 56.4325 78.3696C56.4559 78.7286 56.379 79.0793 56.202 79.4217C56.0254 79.7605 55.749 80.0697 55.3727 80.3492C55.0675 80.5759 54.7567 80.7274 54.4402 80.8036C54.1258 80.8782 53.8135 80.8814 53.5034 80.8134C53.1954 80.7437 52.8958 80.6046 52.6045 80.396C52.3154 80.1858 52.0435 79.9093 51.7888 79.5665L51.6047 79.3188C51.35 78.976 51.1659 78.6342 51.0523 78.2936C50.9393 77.9493 50.895 77.6189 50.9193 77.3024C50.9442 76.9822 51.0367 76.6831 51.1969 76.4052C51.357 76.1273 51.5813 75.8811 51.8698 75.6668C52.2669 75.3718 52.6553 75.1936 53.0347 75.1323C53.4141 75.071 53.7715 75.1088 54.1069 75.2457C54.4406 75.3806 54.7383 75.5957 55 75.8912L53.9026 76.7065C53.771 76.5382 53.6354 76.4168 53.4956 76.3422C53.3543 76.2655 53.2034 76.2414 53.0428 76.2698C52.8823 76.2983 52.7048 76.3847 52.5104 76.5291C52.3745 76.6301 52.275 76.7429 52.212 76.8676C52.1489 76.9923 52.1243 77.1339 52.1382 77.2923C52.152 77.4507 52.2067 77.6291 52.3021 77.8274C52.3981 78.0221 52.5362 78.2407 52.7163 78.4832L52.905 78.7372C53.0852 78.9797 53.2536 79.1758 53.4102 79.3254C53.5668 79.4751 53.7179 79.5802 53.8634 79.6408C54.009 79.7013 54.1524 79.7197 54.2937 79.6958C54.4355 79.6684 54.5816 79.5987 54.7321 79.4869C54.8994 79.3627 55.021 79.2317 55.0972 79.094C55.1718 78.9543 55.2001 78.8067 55.182 78.6514C55.1624 78.4941 55.091 78.3281 54.9679 78.1536Z" fill="#FCD500"/>
<path id="K" d="M54.7389 73.235L58.8144 77.2021L57.8581 78.1846L53.7825 74.2175L54.7389 73.235ZM57.1066 70.8026L57.6357 74.3921L57.747 76.2994L56.6713 75.6012L56.3505 74.1387L55.9268 72.0146L57.1066 70.8026ZM60.0514 75.9313L57.1907 75.1964L57.3719 73.8846L61.1821 74.7696L60.0514 75.9313Z" fill="#FCD500"/>
<path id="I" d="M57.8635 69.5336L62.401 72.9627L61.5766 74.0535L57.0392 70.6244L57.8635 69.5336Z" fill="#FCD500"/>
<path id="E_2" d="M66.4745 62.4494L67.4595 62.8265L66.3755 65.6573L65.3906 65.2802L66.4745 62.4494ZM61.2387 63.1676L66.5501 65.2013L66.0599 66.4818L60.7484 64.448L61.2387 63.1676ZM64.1169 61.9649L65.069 62.3295L64.1247 64.7955L63.1726 64.4309L64.1169 61.9649ZM62.1522 60.7818L63.1408 61.1603L62.0527 64.0021L61.0641 63.6236L62.1522 60.7818Z" fill="#FCD500"/>
<path id="L" d="M67.4685 57.98L68.4966 58.2153L67.8553 61.0179L66.8272 60.7826L67.4685 57.98ZM62.42 59.2733L67.9643 60.5419L67.6584 61.8784L62.1142 60.6099L62.42 59.2733Z" fill="#FCD500"/>
<path id="E_3" d="M67.8735 53.1074L68.9245 53.1961L68.6696 56.2166L67.6186 56.1279L67.8735 53.1074ZM63.0433 55.2518L68.7106 55.7301L68.5953 57.0963L62.928 56.618L63.0433 55.2518ZM65.4741 53.2969L66.49 53.3827L66.2679 56.0139L65.252 55.9282L65.4741 53.2969ZM63.2581 52.7061L64.3129 52.7952L64.057 55.8273L63.0022 55.7383L63.2581 52.7061Z" fill="#FCD500"/>
<path id="K_2" d="M63.0997 51.2192L68.7748 50.8433L68.8654 52.2114L63.1904 52.5873L63.0997 51.2192ZM62.8754 47.8321L65.8975 49.8399L67.3898 51.0329L66.1512 51.3655L64.8495 50.6257L62.9872 49.5198L62.8754 47.8321ZM68.6576 49.0738L66.1978 50.7087L65.3439 49.6965L68.5505 47.4562L68.6576 49.0738Z" fill="#FCD500"/>
<path id="T" d="M62.1636 45.2777L67.7104 44.0206L68.0135 45.3578L62.4667 46.6149L62.1636 45.2777ZM61.7854 43.6091L62.8178 43.3751L63.8686 48.0115L62.8362 48.2454L61.7854 43.6091Z" fill="#FCD500"/>
<path id="R" d="M61.6995 43.6617L60.8701 41.5828C60.7079 41.1764 60.6275 40.7991 60.6288 40.451C60.6301 40.1028 60.7169 39.8004 60.8893 39.5438C61.0607 39.2847 61.3206 39.0857 61.6689 38.9468C61.9712 38.8261 62.2428 38.7725 62.4836 38.7857C62.7244 38.799 62.9451 38.8638 63.1457 38.98C63.3429 39.0948 63.5282 39.2465 63.7017 39.4353L64.104 39.7585L64.8002 41.5036L63.8199 41.9031L63.3046 40.6115C63.2399 40.4494 63.1573 40.3268 63.0568 40.2435C62.9563 40.1602 62.8422 40.1132 62.7146 40.1025C62.5835 40.0903 62.443 40.1141 62.2931 40.1739C62.1407 40.2347 62.0212 40.3146 61.9345 40.4137C61.8479 40.5128 61.7972 40.6283 61.7826 40.7603C61.767 40.8899 61.7906 41.0333 61.8533 41.1905L62.1746 41.9959L66.474 40.2807L66.9821 41.5542L61.6995 43.6617ZM65.8284 38.6625L63.958 40.763L63.4123 39.4162L65.2297 37.32L65.2842 37.2983L65.8284 38.6625Z" fill="#FCD500"/>
<path id="Y" d="M59.349 38.5058L60.9362 36.3444L58.2771 36.7027L57.5226 35.4335L61.5896 35.1426L63.3457 34.0986L64.0583 35.2973L62.3022 36.3413L60.1055 39.7784L59.349 38.5058Z" fill="#FCD500"/>
<path id="K_3" d="M56.6529 34.5758L61.0282 30.942L61.9042 31.9968L57.5289 35.6306L56.6529 34.5758ZM54.4841 31.9645L58.1094 31.8175L60.0178 31.9081L59.2099 32.9041L57.7217 33.0687L55.5648 33.2656L54.4841 31.9645ZM59.8952 29.5778L58.8623 32.3449L57.5769 32.0261L58.8594 28.3307L59.8952 29.5778Z" fill="#FCD500"/>
</g>
</g>
</g>
</svg>
