<svg width="18" height="15" viewBox="0 0 18 15" fill="none" xmlns="http://www.w3.org/2000/svg">
<path d="M16.2 0H3.59999C2.60729 0 1.79999 0.8073 1.79999 1.8V6.3H3.59999V3.6L9.35999 7.92C9.51583 8.0367 9.70529 8.09977 9.89999 8.09977C10.0947 8.09977 10.2841 8.0367 10.44 7.92L16.2 3.6V11.7H8.99999V13.5H16.2C17.1927 13.5 18 12.6927 18 11.7V1.8C18 0.8073 17.1927 0 16.2 0ZM9.89999 6.075L4.19939 1.8H15.6006L9.89999 6.075Z" fill="#FCFB04"/>
<path d="M0 7.19995H6.3V8.99995H0V7.19995ZM1.8 9.89995H7.2V11.7H1.8V9.89995ZM4.5 12.6H8.1V14.4H4.5V12.6Z" fill="#FCFB04"/>
</svg>
