<svg width="18" height="18" viewBox="0 0 18 18" fill="none" xmlns="http://www.w3.org/2000/svg">
<path d="M0 8.73C0 3.71363 3.92963 0 9 0C14.0704 0 18 3.71363 18 8.73C18 13.7464 14.0704 17.46 9 17.46C8.08875 17.46 7.21575 17.3396 6.3945 17.1146C6.23526 17.0703 6.06561 17.0822 5.91412 17.1484L4.12762 17.9381C4.01973 17.9857 3.90179 18.0061 3.78418 17.9974C3.66657 17.9888 3.55289 17.9514 3.45313 17.8885C3.35336 17.8256 3.27057 17.7392 3.21202 17.6368C3.15348 17.5344 3.12098 17.4192 3.11737 17.3014L3.06787 15.7005C3.06446 15.6031 3.04125 15.5073 2.99967 15.4191C2.95809 15.3309 2.899 15.2521 2.826 15.1875C1.0755 13.6215 0 11.3535 0 8.73ZM6.23925 7.08862L3.5955 11.2826C3.34238 11.6854 3.83625 12.1388 4.21537 11.8519L7.056 9.69638C7.14943 9.62541 7.26343 9.58681 7.38075 9.5864C7.49807 9.586 7.61233 9.62381 7.70625 9.69412L9.80888 11.2714C9.95806 11.3833 10.1288 11.463 10.3103 11.5056C10.4919 11.5482 10.6803 11.5528 10.8637 11.5189C11.0471 11.4851 11.2214 11.4137 11.3758 11.3091C11.5302 11.2045 11.6613 11.0691 11.7608 10.9114L14.4045 6.71738C14.6587 6.31463 14.1638 5.86125 13.7846 6.14813L10.944 8.30363C10.8506 8.37459 10.7366 8.41319 10.6193 8.4136C10.5019 8.414 10.3877 8.37619 10.2937 8.30587L8.19112 6.7275C8.04194 6.61562 7.87119 6.53587 7.68965 6.49326C7.50811 6.45065 7.31971 6.44612 7.13633 6.47994C6.95295 6.51376 6.77856 6.58521 6.62417 6.68978C6.46977 6.79435 6.33871 6.92976 6.23925 7.0875V7.08862Z" fill="#FCFB04"/>
</svg>
