<svg width="99" height="46" viewBox="0 0 99 46" fill="none" xmlns="http://www.w3.org/2000/svg">
<path d="M2 9L10 1L18 9L26 1L34 9L42 1L50 9L58 1L66 9L74 1L82 9L90 1L98 9" stroke="#939393"/>
<path d="M2 21L10 13L18 21L26 13L34 21L42 13L50 21L58 13L66 21L74 13L82 21L90 13L98 21" stroke="#939393"/>
<path d="M2 33L10 25L18 33L26 25L34 33L42 25L50 33L58 25L66 33L74 25L82 33L90 25L98 33" stroke="#939393"/>
<path d="M1 45L9 37L17 45L25 37L33 45L41 37L49 45L57 37L65 45L73 37L81 45L89 37L97 45" stroke="#939393"/>
</svg>
